<?xml version="1.0" standalone="no"?>
<!DOCTYPE svg PUBLIC "-//W3C//DTD SVG 20010904//EN"
 "http://www.w3.org/TR/2001/REC-SVG-20010904/DTD/svg10.dtd">
<svg version="1.0" xmlns="http://www.w3.org/2000/svg"
 width="700.000000pt" height="700.000000pt" viewBox="0 0 700.000000 700.000000"
 preserveAspectRatio="xMidYMid meet">
<metadata>
Created by potrace 1.11, written by Peter Selinger 2001-2013
</metadata>
<g transform="translate(0.000000,700.000000) scale(0.100000,-0.100000)"
fill="#000000" stroke="none">
<path d="M1197 6743 c-3 -2 -20 -7 -39 -10 -18 -2 -65 -20 -103 -39 -212 -101
-413 -319 -617 -669 -78 -133 -142 -282 -165 -385 -12 -54 -6 -205 11 -255 70
-205 269 -336 591 -390 17 -3 44 -8 60 -11 17 -3 113 -8 215 -11 179 -5 280 3
480 42 10 2 40 7 67 11 26 3 55 8 63 9 8 2 40 6 70 10 30 4 62 9 70 10 31 5
96 16 125 20 17 2 50 7 75 10 25 3 70 10 100 15 30 5 75 12 100 15 25 3 56 8
70 10 144 28 379 54 460 51 220 -6 319 -113 326 -351 4 -141 -16 -236 -101
-490 -60 -179 -104 -328 -140 -475 -2 -8 -48 -193 -103 -410 -55 -217 -103
-412 -106 -434 -4 -21 -8 -41 -11 -45 -2 -4 -6 -18 -8 -32 -3 -13 -15 -62 -27
-109 -12 -47 -23 -92 -25 -100 -2 -8 -15 -64 -29 -124 -14 -59 -28 -120 -31
-135 -2 -14 -11 -52 -20 -83 -8 -32 -17 -70 -20 -85 -4 -26 -9 -48 -19 -91
-18 -76 -119 -522 -122 -541 -3 -12 -11 -51 -19 -85 -7 -33 -16 -83 -20 -110
-3 -27 -8 -52 -9 -55 -4 -7 -11 -58 -22 -166 -10 -89 -10 -303 0 -375 41 -312
196 -525 441 -607 l80 -27 642 -2 c484 -1 656 1 700 11 286 62 468 286 510
630 13 106 4 467 -13 496 -2 3 -8 34 -14 70 -18 111 -20 123 -29 164 -6 22
-19 81 -30 130 -11 50 -31 140 -45 200 -14 61 -27 121 -30 135 -2 14 -21 97
-41 185 -20 88 -39 171 -41 185 -3 14 -7 33 -10 42 -3 9 -7 26 -9 38 -2 13
-13 59 -24 104 -72 293 -131 539 -135 559 -2 12 -30 123 -61 247 -31 124 -65
259 -75 300 -57 234 -98 379 -170 590 -88 258 -108 349 -105 485 4 200 75 310
228 351 63 17 222 12 362 -10 97 -16 320 -49 400 -61 77 -11 120 -17 140 -21
11 -2 40 -6 65 -9 25 -3 70 -10 100 -15 30 -5 75 -12 100 -15 25 -3 83 -12
130 -20 47 -7 103 -17 125 -20 22 -3 58 -9 80 -13 81 -14 445 -6 545 11 240
44 385 108 491 217 160 166 168 396 23 683 -228 452 -520 764 -783 837 -58 17
-109 17 -650 12 -764 -7 -2620 -7 -3403 0 -339 3 -619 4 -621 1z"/>
</g>
</svg>
