<?xml version="1.0" encoding="utf-8"?>
<!-- Generator: Adobe Illustrator 19.0.0, SVG Export Plug-In . SVG Version: 6.00 Build 0)  -->
<svg version="1.1" id="Logo" xmlns="http://www.w3.org/2000/svg" xmlns:xlink="http://www.w3.org/1999/xlink" x="0px" y="0px"
	 viewBox="0 0 1080 1080" style="enable-background:new 0 0 1080 1080;" xml:space="preserve">
<style type="text/css">
	.st0{display:none;}
	.st1{display:inline;fill:none;stroke:#000000;stroke-width:8;stroke-miterlimit:10;}
	.st2{display:inline;fill:url(#XMLID_30_);}
	.st3{fill:#FFFFFF;}
	.st4{fill:none;stroke:#000000;stroke-width:4;stroke-miterlimit:10;}
	.st5{display:inline;fill:url(#XMLID_31_);}
	.st6{display:inline;fill:url(#XMLID_32_);}
	.st7{display:inline;fill:url(#XMLID_37_);}
	.st8{fill:url(#XMLID_38_);}
	.st9{fill:url(#XMLID_39_);}
	.st10{fill:url(#XMLID_40_);}
	.st11{fill:url(#XMLID_41_);}
	.st12{fill:url(#XMLID_42_);}
	.st13{fill:url(#XMLID_43_);}
	.st14{display:inline;fill:none;stroke:#FFFFFF;stroke-width:8;stroke-miterlimit:10;}
	.st15{fill:none;stroke:#FFFFFF;stroke-width:8;stroke-miterlimit:10;}
</style>
<g id="Logo">
	<g id="XMLID_137_">
		<g id="XMLID_150_" class="st0">
			<path id="XMLID_152_" class="st1" d="M1048,776.8H204.3c-6.6,0-12-5.4-12-12v-500c0-6.6,5.4-12,12-12H1048c6.6,0,12,5.4,12,12
				v500C1060,771.4,1054.6,776.8,1048,776.8z"/>
			<linearGradient id="XMLID_30_" gradientUnits="userSpaceOnUse" x1="192.3325" y1="514.7896" x2="1060" y2="514.7896">
				<stop  offset="0" style="stop-color:#00FFFF"/>
				<stop  offset="1" style="stop-color:#29ABE2"/>
			</linearGradient>
			<path id="XMLID_151_" class="st2" d="M1048,776.8H204.3c-6.6,0-12-5.4-12-12v-500c0-6.6,5.4-12,12-12H1048c6.6,0,12,5.4,12,12
				v500C1060,771.4,1054.6,776.8,1048,776.8z"/>
		</g>
		<path id="XMLID_149_" class="st3" d="M319,778h-59c0,0-74.3,8.7-48.4-99.6s55.5-207.1,55.5-207.1l13-35.1c0,0,25.3-73.5-52.4-63.6
			s-119.2,16.3-119.2,16.3s-125,9.3-81.8-64.1s78.3-64.7,78.3-64.7l190.6,0.9H307"/>
		<path id="XMLID_148_" class="st3" d="M295,777h57.8c0,0,74.3,9.2,48.4-99.1s-54.9-206.4-54.9-206.4l-13.7-35.4
			c0,0-25.3-73.4,52.4-63.5s119.2,16.3,119.2,16.3s125,9.3,81.8-64.1s-78.3-65.2-78.3-65.2L317.1,260H307"/>
		<path id="XMLID_147_" class="st4" d="M978.1,588.5"/>
		<path id="XMLID_144_" class="st3" d="M946.8,499.5c62.5,0,113.2,62.3,113.2,139.1s-50.7,139.1-113.2,139.1
			s-113.2-62.3-113.2-139.1S884.3,499.5,946.8,499.5z M946.8,610.9c-12.4,0-22.5,12.4-22.5,27.6c0,15.3,10.1,27.6,22.5,27.6
			s22.5-12.4,22.5-27.6C969.3,623.3,959.2,610.9,946.8,610.9z"/>
		<path id="XMLID_141_" class="st3" d="M633.2,776.8c-10.4,0-23-516.2,0-516.8c23-0.6,195.3-24.4,210.8,236.6
			C859.6,757.6,643.4,772.7,633.2,776.8z M760.9,515.6c-3.7-61.3-48.3-56.1-50-55.5c-8,2.5-6.2,120,0,121.3
			C713.9,582,764.6,576.9,760.9,515.6z"/>
		<path id="XMLID_138_" class="st3" d="M507.9,499.5c62.5,0,113.2,62.3,113.2,139.1s-50.7,139.1-113.2,139.1
			s-113.2-62.3-113.2-139.1S445.4,499.5,507.9,499.5z M507.9,610.9c-12.4,0-22.5,12.4-22.5,27.6c0,15.3,10.1,27.6,22.5,27.6
			c12.4,0,22.5-12.4,22.5-27.6C530.4,623.3,520.3,610.9,507.9,610.9z"/>
	</g>
	<g id="XMLID_120_">
		<g id="XMLID_133_" class="st0">
			<linearGradient id="XMLID_31_" gradientUnits="userSpaceOnUse" x1="17.6168" y1="515.476" x2="1060" y2="515.476">
				<stop  offset="0" style="stop-color:#00FFFF"/>
				<stop  offset="1" style="stop-color:#29ABE2"/>
			</linearGradient>
			<path id="XMLID_136_" class="st5" d="M1048,776.8H204.3c-6.6,0-12-5.4-12-12v-500c0-6.6,5.4-12,12-12H1048c6.6,0,12,5.4,12,12
				v500C1060,771.4,1054.6,776.8,1048,776.8z"/>
			<linearGradient id="XMLID_32_" gradientUnits="userSpaceOnUse" x1="17.6168" y1="515.476" x2="1060" y2="515.476">
				<stop  offset="0" style="stop-color:#00FFFF"/>
				<stop  offset="1" style="stop-color:#29ABE2"/>
			</linearGradient>
			<path id="XMLID_135_" class="st6" d="M1048,776.8H204.3c-6.6,0-12-5.4-12-12v-500c0-6.6,5.4-12,12-12H1048c6.6,0,12,5.4,12,12
				v500C1060,771.4,1054.6,776.8,1048,776.8z"/>
			<linearGradient id="XMLID_37_" gradientUnits="userSpaceOnUse" x1="17.6168" y1="515.476" x2="1060" y2="515.476">
				<stop  offset="0" style="stop-color:#00FFFF"/>
				<stop  offset="1" style="stop-color:#29ABE2"/>
			</linearGradient>
			<path id="XMLID_134_" class="st7" d="M1048,776.8H204.3c-6.6,0-12-5.4-12-12v-500c0-6.6,5.4-12,12-12H1048c6.6,0,12,5.4,12,12
				v500C1060,771.4,1054.6,776.8,1048,776.8z"/>
		</g>
		<linearGradient id="XMLID_38_" gradientUnits="userSpaceOnUse" x1="17.6168" y1="515.476" x2="1060" y2="515.476">
			<stop  offset="0" style="stop-color:#00FFFF"/>
			<stop  offset="1" style="stop-color:#29ABE2"/>
		</linearGradient>
		<path id="XMLID_132_" class="st8" d="M319,778h-59c0,0-74.3,8.7-48.4-99.6s55.5-207.1,55.5-207.1l13-35.1c0,0,25.3-73.5-52.4-63.6
			s-119.2,16.3-119.2,16.3s-125,9.3-81.8-64.1s78.3-64.7,78.3-64.7l190.6,0.9H307"/>
		<linearGradient id="XMLID_39_" gradientUnits="userSpaceOnUse" x1="17.6168" y1="515.476" x2="1060" y2="515.476">
			<stop  offset="0" style="stop-color:#00FFFF"/>
			<stop  offset="1" style="stop-color:#29ABE2"/>
		</linearGradient>
		<path id="XMLID_131_" class="st9" d="M295,777h57.8c0,0,74.3,9.2,48.4-99.1s-54.9-206.4-54.9-206.4l-13.7-35.4
			c0,0-25.3-73.4,52.4-63.5s119.2,16.3,119.2,16.3s125,9.3,81.8-64.1s-78.3-65.2-78.3-65.2L317.1,260H307"/>
		<linearGradient id="XMLID_40_" gradientUnits="userSpaceOnUse" x1="17.6168" y1="515.476" x2="1060" y2="515.476">
			<stop  offset="0" style="stop-color:#00FFFF"/>
			<stop  offset="1" style="stop-color:#29ABE2"/>
		</linearGradient>
		<path id="XMLID_130_" class="st10" d="M978.1,588.5"/>
		<linearGradient id="XMLID_41_" gradientUnits="userSpaceOnUse" x1="17.6168" y1="515.476" x2="1060" y2="515.476">
			<stop  offset="0" style="stop-color:#00FFFF"/>
			<stop  offset="1" style="stop-color:#29ABE2"/>
		</linearGradient>
		<path id="XMLID_127_" class="st11" d="M946.8,499.5c62.5,0,113.2,62.3,113.2,139.1s-50.7,139.1-113.2,139.1
			s-113.2-62.3-113.2-139.1S884.3,499.5,946.8,499.5z M946.8,610.9c-12.4,0-22.5,12.4-22.5,27.6c0,15.3,10.1,27.6,22.5,27.6
			s22.5-12.4,22.5-27.6C969.3,623.3,959.2,610.9,946.8,610.9z"/>
		<linearGradient id="XMLID_42_" gradientUnits="userSpaceOnUse" x1="17.6168" y1="515.476" x2="1060" y2="515.476">
			<stop  offset="0" style="stop-color:#00FFFF"/>
			<stop  offset="1" style="stop-color:#29ABE2"/>
		</linearGradient>
		<path id="XMLID_124_" class="st12" d="M633.2,776.8c-10.4,0-23-516.2,0-516.8c23-0.6,195.3-24.4,210.8,236.6
			C859.6,757.6,643.4,772.7,633.2,776.8z M760.9,515.6c-3.7-61.3-48.3-56.1-50-55.5c-8,2.5-6.2,120,0,121.3
			C713.9,582,764.6,576.9,760.9,515.6z"/>
		<linearGradient id="XMLID_43_" gradientUnits="userSpaceOnUse" x1="17.6168" y1="515.476" x2="1060" y2="515.476">
			<stop  offset="0" style="stop-color:#00FFFF"/>
			<stop  offset="1" style="stop-color:#29ABE2"/>
		</linearGradient>
		<path id="XMLID_121_" class="st13" d="M507.9,499.5c62.5,0,113.2,62.3,113.2,139.1s-50.7,139.1-113.2,139.1
			s-113.2-62.3-113.2-139.1S445.4,499.5,507.9,499.5z M507.9,610.9c-12.4,0-22.5,12.4-22.5,27.6c0,15.3,10.1,27.6,22.5,27.6
			c12.4,0,22.5-12.4,22.5-27.6C530.4,623.3,520.3,610.9,507.9,610.9z"/>
	</g>
	<g id="XMLID_103_">
		<g id="XMLID_116_" class="st0">
			<path id="XMLID_119_" class="st14" d="M1048,776.8H204.3c-6.6,0-12-5.4-12-12v-500c0-6.6,5.4-12,12-12H1048c6.6,0,12,5.4,12,12
				v500C1060,771.4,1054.6,776.8,1048,776.8z"/>
			<path id="XMLID_118_" class="st14" d="M1048,776.8H204.3c-6.6,0-12-5.4-12-12v-500c0-6.6,5.4-12,12-12H1048c6.6,0,12,5.4,12,12
				v500C1060,771.4,1054.6,776.8,1048,776.8z"/>
			<path id="XMLID_117_" class="st14" d="M1048,776.8H204.3c-6.6,0-12-5.4-12-12v-500c0-6.6,5.4-12,12-12H1048c6.6,0,12,5.4,12,12
				v500C1060,771.4,1054.6,776.8,1048,776.8z"/>
		</g>
		<path id="XMLID_115_" class="st15" d="M319,778h-59c0,0-74.3,8.7-48.4-99.6s55.5-207.1,55.5-207.1l13-35.1
			c0,0,25.3-73.5-52.4-63.6s-119.2,16.3-119.2,16.3s-125,9.3-81.8-64.1s78.3-64.7,78.3-64.7l190.6,0.9H307"/>
		<path id="XMLID_114_" class="st15" d="M295,777h57.8c0,0,74.3,9.2,48.4-99.1s-54.9-206.4-54.9-206.4l-13.7-35.4
			c0,0-25.3-73.4,52.4-63.5s119.2,16.3,119.2,16.3s125,9.3,81.8-64.1s-78.3-65.2-78.3-65.2L317.1,260H307"/>
		<path id="XMLID_113_" class="st15" d="M978.1,588.5"/>
		<path id="XMLID_110_" class="st15" d="M946.8,499.5c62.5,0,113.2,62.3,113.2,139.1s-50.7,139.1-113.2,139.1
			s-113.2-62.3-113.2-139.1S884.3,499.5,946.8,499.5z M946.8,610.9c-12.4,0-22.5,12.4-22.5,27.6c0,15.3,10.1,27.6,22.5,27.6
			s22.5-12.4,22.5-27.6C969.3,623.3,959.2,610.9,946.8,610.9z"/>
		<path id="XMLID_107_" class="st15" d="M633.2,776.8c-10.4,0-23-516.2,0-516.8c23-0.6,195.3-24.4,210.8,236.6
			C859.6,757.6,643.4,772.7,633.2,776.8z M760.9,515.6c-3.7-61.3-48.3-56.1-50-55.5c-8,2.5-6.2,120,0,121.3
			C713.9,582,764.6,576.9,760.9,515.6z"/>
		<path id="XMLID_104_" class="st15" d="M507.9,499.5c62.5,0,113.2,62.3,113.2,139.1s-50.7,139.1-113.2,139.1
			s-113.2-62.3-113.2-139.1S445.4,499.5,507.9,499.5z M507.9,610.9c-12.4,0-22.5,12.4-22.5,27.6c0,15.3,10.1,27.6,22.5,27.6
			c12.4,0,22.5-12.4,22.5-27.6C530.4,623.3,520.3,610.9,507.9,610.9z"/>
	</g>
</g>
</svg>
