<?xml version="1.0" encoding="utf-8"?>
<!-- Generator: Adobe Illustrator 19.0.0, SVG Export Plug-In . SVG Version: 6.00 Build 0)  -->
<svg version="1.1" id="Layer_1" xmlns="http://www.w3.org/2000/svg" xmlns:xlink="http://www.w3.org/1999/xlink" x="0px" y="0px"
	 viewBox="0 0 960 560" style="enable-background:new 0 0 960 560;" xml:space="preserve">
<style type="text/css">
	.st0{display:none;}
	.st1{display:inline;fill:none;stroke:#000000;stroke-width:8;stroke-miterlimit:10;}
	.st2{display:inline;fill:url(#XMLID_35_);}
	.st3{fill:#FFFFFF;}
	.st4{fill:none;stroke:#000000;stroke-width:4;stroke-miterlimit:10;}
	.st5{display:inline;fill:url(#XMLID_36_);}
	.st6{display:inline;fill:url(#XMLID_37_);}
	.st7{display:inline;fill:url(#XMLID_38_);}
	.st8{fill:url(#XMLID_39_);}
	.st9{fill:url(#XMLID_40_);}
	.st10{fill:url(#XMLID_41_);}
	.st11{fill:url(#XMLID_42_);}
	.st12{fill:url(#XMLID_43_);}
	.st13{fill:url(#XMLID_44_);}
	.st14{display:inline;fill:none;stroke:#FFFFFF;stroke-width:8;stroke-miterlimit:10;}
	.st15{fill:none;stroke:#FFFFFF;stroke-width:8;stroke-miterlimit:10;}
</style>
<g id="Logo_1_">
	<g id="XMLID_137_">
		<g id="XMLID_150_" class="st0">
			<path id="XMLID_152_" class="st1" d="M938.8,514.8H180.7c-5.9,0-10.8-4.9-10.8-10.8V54.7c0-5.9,4.9-10.8,10.8-10.8h758.1
				c5.9,0,10.8,4.9,10.8,10.8V504C949.6,510,944.7,514.8,938.8,514.8z"/>
			
				<linearGradient id="XMLID_35_" gradientUnits="userSpaceOnUse" x1="169.8851" y1="282.614" x2="949.567" y2="282.614" gradientTransform="matrix(1 0 0 -1 0 562)">
				<stop  offset="0" style="stop-color:#00FFFF"/>
				<stop  offset="1" style="stop-color:#29ABE2"/>
			</linearGradient>
			<path id="XMLID_151_" class="st2" d="M938.8,514.8H180.7c-5.9,0-10.8-4.9-10.8-10.8V54.7c0-5.9,4.9-10.8,10.8-10.8h758.1
				c5.9,0,10.8,4.9,10.8,10.8V504C949.6,510,944.7,514.8,938.8,514.8z"/>
		</g>
		<path id="XMLID_149_" class="st3" d="M283.7,515.9h-53c0,0-66.8,7.8-43.5-89.5s49.9-186.1,49.9-186.1l11.7-31.5
			c0,0,22.7-66-47.1-57.1S94.6,166.3,94.6,166.3s-112.3,8.4-73.5-57.6s70.4-58.1,70.4-58.1l171.3,0.8H273"/>
		<path id="XMLID_148_" class="st3" d="M262.2,515h51.9c0,0,66.8,8.3,43.5-89s-49.3-185.5-49.3-185.5L296,208.7
			c0,0-22.7-66,47.1-57.1c69.8,8.9,107.1,14.6,107.1,14.6s112.3,8.4,73.5-57.6s-70.4-58.6-70.4-58.6L282,50.4H273"/>
		<path id="XMLID_147_" class="st4" d="M876,345.6"/>
		<path id="XMLID_144_" class="st3" d="M847.8,265.6c56.2,0,101.7,56,101.7,125s-45.6,125-101.7,125s-101.7-56-101.7-125
			S791.7,265.6,847.8,265.6z M847.8,365.7c-11.1,0-20.2,11.1-20.2,24.8c0,13.7,9.1,24.8,20.2,24.8c11.1,0,20.2-11.1,20.2-24.8
			C868.1,376.9,859,365.7,847.8,365.7z"/>
		<path id="XMLID_141_" class="st3" d="M566.1,514.8c-9.3,0-20.7-463.8,0-464.4c20.7-0.5,175.5-21.9,189.4,212.6
			C769.5,497.6,575.2,511.1,566.1,514.8z M680.8,280.1c-3.3-55.1-43.4-50.4-44.9-49.9c-7.2,2.2-5.6,107.8,0,109
			C638.6,339.8,684.1,335.2,680.8,280.1z"/>
		<path id="XMLID_138_" class="st3" d="M453.5,265.6c56.2,0,101.7,56,101.7,125s-45.6,125-101.7,125s-101.7-56-101.7-125
			S397.3,265.6,453.5,265.6z M453.5,365.7c-11.1,0-20.2,11.1-20.2,24.8c0,13.7,9.1,24.8,20.2,24.8s20.2-11.1,20.2-24.8
			C473.7,376.9,464.6,365.7,453.5,365.7z"/>
	</g>
	<g id="XMLID_120_">
		<g id="XMLID_133_" class="st0">
			
				<linearGradient id="XMLID_36_" gradientUnits="userSpaceOnUse" x1="12.9215" y1="282.614" x2="949.567" y2="282.614" gradientTransform="matrix(1 0 0 -1 0 562)">
				<stop  offset="0" style="stop-color:#00FFFF"/>
				<stop  offset="1" style="stop-color:#29ABE2"/>
			</linearGradient>
			<path id="XMLID_136_" class="st5" d="M938.8,514.8H180.7c-5.9,0-10.8-4.9-10.8-10.8V54.7c0-5.9,4.9-10.8,10.8-10.8h758.1
				c5.9,0,10.8,4.9,10.8,10.8V504C949.6,510,944.7,514.8,938.8,514.8z"/>
			
				<linearGradient id="XMLID_37_" gradientUnits="userSpaceOnUse" x1="12.9215" y1="282.614" x2="949.567" y2="282.614" gradientTransform="matrix(1 0 0 -1 0 562)">
				<stop  offset="0" style="stop-color:#00FFFF"/>
				<stop  offset="1" style="stop-color:#29ABE2"/>
			</linearGradient>
			<path id="XMLID_135_" class="st6" d="M938.8,514.8H180.7c-5.9,0-10.8-4.9-10.8-10.8V54.7c0-5.9,4.9-10.8,10.8-10.8h758.1
				c5.9,0,10.8,4.9,10.8,10.8V504C949.6,510,944.7,514.8,938.8,514.8z"/>
			
				<linearGradient id="XMLID_38_" gradientUnits="userSpaceOnUse" x1="12.9215" y1="282.614" x2="949.567" y2="282.614" gradientTransform="matrix(1 0 0 -1 0 562)">
				<stop  offset="0" style="stop-color:#00FFFF"/>
				<stop  offset="1" style="stop-color:#29ABE2"/>
			</linearGradient>
			<path id="XMLID_134_" class="st7" d="M938.8,514.8H180.7c-5.9,0-10.8-4.9-10.8-10.8V54.7c0-5.9,4.9-10.8,10.8-10.8h758.1
				c5.9,0,10.8,4.9,10.8,10.8V504C949.6,510,944.7,514.8,938.8,514.8z"/>
		</g>
		
			<linearGradient id="XMLID_39_" gradientUnits="userSpaceOnUse" x1="12.9256" y1="278.8638" x2="949.571" y2="278.8638" gradientTransform="matrix(1 0 0 -1 0 562)">
			<stop  offset="0" style="stop-color:#00FFFF"/>
			<stop  offset="1" style="stop-color:#29ABE2"/>
		</linearGradient>
		<path id="XMLID_132_" class="st8" d="M283.7,515.9h-53c0,0-66.8,7.8-43.5-89.5s49.9-186.1,49.9-186.1l11.7-31.5
			c0,0,22.7-66-47.1-57.1S94.6,166.3,94.6,166.3s-112.3,8.4-73.5-57.6s70.4-58.1,70.4-58.1l171.3,0.8H273"/>
		
			<linearGradient id="XMLID_40_" gradientUnits="userSpaceOnUse" x1="12.9215" y1="279.5048" x2="949.567" y2="279.5048" gradientTransform="matrix(1 0 0 -1 0 562)">
			<stop  offset="0" style="stop-color:#00FFFF"/>
			<stop  offset="1" style="stop-color:#29ABE2"/>
		</linearGradient>
		<path id="XMLID_131_" class="st9" d="M262.2,515h51.9c0,0,66.8,8.3,43.5-89s-49.3-185.5-49.3-185.5L296,208.7
			c0,0-22.7-66,47.1-57.1c69.8,8.9,107.1,14.6,107.1,14.6s112.3,8.4,73.5-57.6s-70.4-58.6-70.4-58.6L282,50.4H273"/>
		
			<linearGradient id="XMLID_41_" gradientUnits="userSpaceOnUse" x1="875.9747" y1="216.39" x2="875.9747" y2="216.39" gradientTransform="matrix(1 0 0 -1 0 562)">
			<stop  offset="0" style="stop-color:#00FFFF"/>
			<stop  offset="1" style="stop-color:#29ABE2"/>
		</linearGradient>
		<path id="XMLID_130_" class="st10" d="M876,345.6"/>
		
			<linearGradient id="XMLID_42_" gradientUnits="userSpaceOnUse" x1="12.9215" y1="171.3721" x2="949.567" y2="171.3721" gradientTransform="matrix(1 0 0 -1 0 562)">
			<stop  offset="0" style="stop-color:#00FFFF"/>
			<stop  offset="1" style="stop-color:#29ABE2"/>
		</linearGradient>
		<path id="XMLID_127_" class="st11" d="M847.8,265.6c56.2,0,101.7,56,101.7,125s-45.6,125-101.7,125s-101.7-56-101.7-125
			S791.7,265.6,847.8,265.6z M847.8,365.7c-11.1,0-20.2,11.1-20.2,24.8c0,13.7,9.1,24.8,20.2,24.8c11.1,0,20.2-11.1,20.2-24.8
			C868.1,376.9,859,365.7,847.8,365.7z"/>
		
			<linearGradient id="XMLID_43_" gradientUnits="userSpaceOnUse" x1="12.9215" y1="279.7426" x2="949.567" y2="279.7426" gradientTransform="matrix(1 0 0 -1 0 562)">
			<stop  offset="0" style="stop-color:#00FFFF"/>
			<stop  offset="1" style="stop-color:#29ABE2"/>
		</linearGradient>
		<path id="XMLID_124_" class="st12" d="M566.1,514.8c-9.3,0-20.7-463.8,0-464.4c20.7-0.5,175.5-21.9,189.4,212.6
			C769.5,497.6,575.2,511.1,566.1,514.8z M680.8,280.1c-3.3-55.1-43.4-50.4-44.9-49.9c-7.2,2.2-5.6,107.8,0,109
			C638.6,339.8,684.1,335.2,680.8,280.1z"/>
		
			<linearGradient id="XMLID_44_" gradientUnits="userSpaceOnUse" x1="12.9215" y1="171.3721" x2="949.567" y2="171.3721" gradientTransform="matrix(1 0 0 -1 0 562)">
			<stop  offset="0" style="stop-color:#00FFFF"/>
			<stop  offset="1" style="stop-color:#29ABE2"/>
		</linearGradient>
		<path id="XMLID_121_" class="st13" d="M453.5,265.6c56.2,0,101.7,56,101.7,125s-45.6,125-101.7,125s-101.7-56-101.7-125
			S397.3,265.6,453.5,265.6z M453.5,365.7c-11.1,0-20.2,11.1-20.2,24.8c0,13.7,9.1,24.8,20.2,24.8s20.2-11.1,20.2-24.8
			C473.7,376.9,464.6,365.7,453.5,365.7z"/>
	</g>
	<g id="XMLID_103_">
		<g id="XMLID_116_" class="st0">
			<path id="XMLID_119_" class="st14" d="M938.8,514.8H180.7c-5.9,0-10.8-4.9-10.8-10.8V54.7c0-5.9,4.9-10.8,10.8-10.8h758.1
				c5.9,0,10.8,4.9,10.8,10.8V504C949.6,510,944.7,514.8,938.8,514.8z"/>
			<path id="XMLID_118_" class="st14" d="M938.8,514.8H180.7c-5.9,0-10.8-4.9-10.8-10.8V54.7c0-5.9,4.9-10.8,10.8-10.8h758.1
				c5.9,0,10.8,4.9,10.8,10.8V504C949.6,510,944.7,514.8,938.8,514.8z"/>
			<path id="XMLID_117_" class="st14" d="M938.8,514.8H180.7c-5.9,0-10.8-4.9-10.8-10.8V54.7c0-5.9,4.9-10.8,10.8-10.8h758.1
				c5.9,0,10.8,4.9,10.8,10.8V504C949.6,510,944.7,514.8,938.8,514.8z"/>
		</g>
		<path id="XMLID_115_" class="st15" d="M283.7,515.9h-53c0,0-66.8,7.8-43.5-89.5s49.9-186.1,49.9-186.1l11.7-31.5
			c0,0,22.7-66-47.1-57.1S94.6,166.3,94.6,166.3s-112.3,8.4-73.5-57.6s70.4-58.1,70.4-58.1l171.3,0.8H273"/>
		<path id="XMLID_114_" class="st15" d="M262.2,515h51.9c0,0,66.8,8.3,43.5-89s-49.3-185.5-49.3-185.5L296,208.7
			c0,0-22.7-66,47.1-57.1c69.8,8.9,107.1,14.6,107.1,14.6s112.3,8.4,73.5-57.6s-70.4-58.6-70.4-58.6L282,50.4H273"/>
		<path id="XMLID_113_" class="st15" d="M876,345.6"/>
		<path id="XMLID_110_" class="st15" d="M847.8,265.6c56.2,0,101.7,56,101.7,125s-45.6,125-101.7,125s-101.7-56-101.7-125
			S791.7,265.6,847.8,265.6z M847.8,365.7c-11.1,0-20.2,11.1-20.2,24.8c0,13.7,9.1,24.8,20.2,24.8c11.1,0,20.2-11.1,20.2-24.8
			C868.1,376.9,859,365.7,847.8,365.7z"/>
		<path id="XMLID_107_" class="st15" d="M566.1,514.8c-9.3,0-20.7-463.8,0-464.4c20.7-0.5,175.5-21.9,189.4,212.6
			C769.5,497.6,575.2,511.1,566.1,514.8z M680.8,280.1c-3.3-55.1-43.4-50.4-44.9-49.9c-7.2,2.2-5.6,107.8,0,109
			C638.6,339.8,684.1,335.2,680.8,280.1z"/>
		<path id="XMLID_104_" class="st15" d="M453.5,265.6c56.2,0,101.7,56,101.7,125s-45.6,125-101.7,125s-101.7-56-101.7-125
			S397.3,265.6,453.5,265.6z M453.5,365.7c-11.1,0-20.2,11.1-20.2,24.8c0,13.7,9.1,24.8,20.2,24.8s20.2-11.1,20.2-24.8
			C473.7,376.9,464.6,365.7,453.5,365.7z"/>
	</g>
</g>
<g id="XMLID_19_">
</g>
<g id="XMLID_20_">
</g>
<g id="XMLID_21_">
</g>
<g id="XMLID_22_">
</g>
<g id="XMLID_23_">
</g>
<g id="XMLID_24_">
</g>
<g id="XMLID_25_">
</g>
<g id="XMLID_26_">
</g>
<g id="XMLID_27_">
</g>
<g id="XMLID_28_">
</g>
<g id="XMLID_29_">
</g>
<g id="XMLID_30_">
</g>
<g id="XMLID_31_">
</g>
<g id="XMLID_32_">
</g>
<g id="XMLID_33_">
</g>
</svg>
